<svg xmlns="http://www.w3.org/2000/svg"  viewBox="0 0 50 50" width="50px" height="50px"><path d="M 25 7 C 16.47 7 11 12.147891 11 21.087891 L 11 26.058594 C 11 26.058594 10.175781 27.042656 10.175781 28.722656 C 10.175781 30.972656 11.908625 32.185172 13.140625 32.826172 C 14.546625 39.015172 21.294 43 25 43 C 28.706 43 35.453375 39.015172 36.859375 32.826172 C 38.091375 32.185172 39.824219 30.697266 39.824219 28.447266 C 39.824219 26.767266 39 26.058594 39 26.058594 L 39 21.087891 C 39 10.533891 32.923828 9.9375 32.923828 9.9375 C 32.923828 9.9375 29.804 7 25 7 z M 32.947266 17.246094 C 34.428266 18.555094 35.81975 21.92 36.96875 27 L 38.460938 27 C 38.649575 27.301063 38.822266 27.755472 38.822266 28.447266 C 38.822266 30.967266 35.986328 32.152344 35.986328 32.152344 C 34.814328 38.289344 28.085 42 25 42 C 21.915 42 15.277672 38.508344 14.013672 32.152344 C 14.013672 32.152344 11.175781 31.145656 11.175781 28.722656 C 11.175781 27.962052 11.384415 27.386416 11.591797 27 L 13.009766 27 L 14.501953 23.869141 C 22.937953 23.813141 29.197266 21.643094 32.947266 17.246094 z"/></svg>